<svg xmlns="http://www.w3.org/2000/svg" viewBox="0 0 1108 919"><path fill="#8C3131" d="M572.7 484.4l180.5 434.2h-361"/><path fill="#513521" d="M802.6508 668.7733l-59.1-102.3612 19.7448-11.4 59.1 102.3612z"/><path fill="#513521" d="M1107.55 668.8231h-304.8v-17.3h304.8zm-795.8622-10.8436l59.4-102.8808 18.7056 10.8-59.4 102.8808z"/><path fill="#2D2013" d="M805.1 648.4l-46.6-78h294.3l47.6 78"/><path fill="#513521" d="M1050.5 574.4l42.7 70H807.3l-41.8-70h285m4.5-8H751.5v.1l51.3 85.9h304.8l-52.1-85.2v-.8h-.5z"/><path fill="#2D2013" d="M7.5 648.4l46.5-78h321.4l-47.2 78"/><path fill="#513521" d="M368.4 574.4l-42.4 70H14.6l41.7-70h312.1m14.1-8h-331v.4l-51 85.6h330l52-86z"/><path fill="#C6AA93" d="M51.5 201.4h1003.8v365H51.5z"/><g fill="#352F2B"><path d="M108.5 11.4h313.8v190H108.5z"/><path d="M26.5 201.4l81.9-190 81.9 190m150 0l81.9-190 81.9 190"/></g><g fill="#352F2B"><path d="M706.3 11.4h297.6v190H706.3z"/><path d="M628.5 201.4l77.7-190 77.7 190m142.2 0l77.7-190 77.7 190"/></g><path fill="#847163" d="M751.0825 566.4898h-26.2v-334h26.2zm-342.6333 0h-26.2v-334h26.2z"/><path fill="#8C3131" d="M724.9 524.5l-.4.3v-.4h-317v1.1l-.7-1-60.3 100.9h440.3"/><path d="M503.7 517.3h137.4v16.4H503.7zm12.8-12.6h112v12.6h-112z" fill="#4F3D26"/><path fill="#60460B" d="M523.8 301.5h97.6v201h-97.6z"/><path d="M538.7 314.7h31.4v46h-31.4zm36.6 0h31.4v46h-31.4zm-36.6 50.9h31.4v46h-31.4zm36.6 0h31.4v46h-31.4zm-36.6 50.3h31.4v46h-31.4zm36.6 0h31.4v46h-31.4z" fill="#B4DFF9"/><circle fill="#B79400" cx="531.1" cy="414.2" r="3.7"/><path fill="#B79400" d="M529.8 414.2h2.8v19.7h-2.8z"/><circle fill="#B79400" cx="530.9" cy="405.8" r="2.3"/><path fill="#B4DFF9" d="M425.2 305.3h66.7v116.3h-66.7z"/><path fill="#FFEDE1" d="M422.3 416.2h72.6v11h-72.6z"/><path fill="#FFEDE1" d="M422.3 304h5.8v114.1h-5.8zm66.7 0h5.8v114.1H489z"/><path fill="#FFEDE1" d="M425.2 358.5h66.7v5.9h-66.7z"/><path fill="#FFEDE1" d="M445.6 305.4h3.3v114h-3.3zm21.2.4h3.3v114h-3.3z"/><path fill="#FFEDE1" d="M491.9722 331.0713v3.3h-66.7v-3.3zm-.039 55.761v3.3h-66.7v-3.3zM422.3 300.4h72.6v5.9h-72.6z"/><path fill="#B4DFF9" d="M643 305.7h66.7V422H643z"/><path fill="#FFEDE1" d="M640.1 416.6h72.6v11h-72.6z"/><path fill="#FFEDE1" d="M640.1 304.4h5.8v114.1h-5.8zm66.7 0h5.8v114.1h-5.8z"/><path fill="#FFEDE1" d="M643 359h66.7v5.9H643z"/><path fill="#FFEDE1" d="M663.4 305.8h3.3v114h-3.3zm21.2.4h3.3v114h-3.3z"/><path fill="#FFEDE1" d="M709.7796 331.482v3.3h-66.7v-3.3zm-.039 55.761v3.3h-66.7v-3.3zM640.1 300.8h72.6v5.9h-72.6zm-138.5 59.9h14.2v35h-14.2z"/><path fill="#282524" d="M504.2 364.9h9v2.3h-9z"/><path fill="#004F0D" d="M508.2 297.5c.5-.5.9-.9 1.4-1.1.5-.2 1-.4 1.6-.4 1 0 1.9.4 2.7 1.1s1.2 1.8 1.2 3.2c0 1.6-.5 2.8-1.4 3.8-.9 1-2.1 1.4-3.6 1.4-1.6 0-2.8-.6-3.7-1.7-1.1-1.3-1.6-3.1-1.6-5.4 0-2.6.6-4.7 1.9-6.3 1.1-1.4 2.6-2.1 4.2-2.1 1.1 0 1.9.3 2.6.8.7.5 1 1.2 1 1.9 0 .5-.2.9-.5 1.3-.3.3-.7.5-1.2.5-.4 0-.8-.1-1-.4s-.4-.6-.4-1.1c0-.3.1-.6.3-.9.1-.2.2-.3.2-.4 0-.2-.1-.3-.2-.4-.1-.1-.4-.2-.7-.2-.9 0-1.6.5-2 1.5-.6 1.1-.8 2.8-.8 4.9zm2 0c-.5 0-1 .3-1.4.9s-.6 1.4-.6 2.5c0 1.2.2 2.2.7 3 .3.5.8.8 1.3.8s1-.3 1.4-.8c.4-.6.5-1.5.5-2.8 0-1.3-.2-2.2-.5-2.7-.4-.7-.8-.9-1.4-.9zm2 11.3h1v10.3h2.1v1.2h-2.1v1.8c0 .3.1.5.3.7.2.1.4.2.8.2h.6v1h-6.7v-1h1.1c.4 0 .7-.1.9-.2.2-.2.3-.5.3-1v-1.5H505v-1.4l7.2-10.1zm-1.8 4.2l-4.4 6.1h4.4V313zm-3.3 26.9h4.9c.5 0 .8-.2 1.1-.5.3-.3.5-1 .6-2h1.1l-.3 5.1h-9.7v-.9c.5-.8 1.6-2.1 3.1-3.8 1.4-1.5 2.2-2.7 2.6-3.4.5-1 .8-2.1.8-3.1 0-.9-.2-1.6-.6-2.1-.4-.5-1-.7-1.7-.7s-1.3.2-1.8.6-.7.8-.7 1.2c0 .2.1.3.2.4.1.1.4.2.8.3.9.2 1.3.7 1.3 1.4 0 .5-.2.9-.5 1.2-.3.3-.7.5-1.2.5s-1-.2-1.3-.7c-.3-.4-.5-1.1-.5-1.9 0-1.1.4-2 1.1-2.8.9-.9 2.1-1.4 3.6-1.4 1.4 0 2.5.4 3.3 1.1.8.8 1.3 1.7 1.3 2.8 0 .6-.1 1.1-.3 1.6-.3.7-.6 1.3-1.1 1.8-.5.5-1.2 1.2-2.4 2-1.2.9-2 1.5-2.5 1.9-.4.5-.8.9-1.2 1.4z"/><path fill="#B4DFF9" d="M154.3 286.3h93.9V450h-93.9z"/><path fill="#FFEDE1" d="M150.2 442.4h102.1v15.5H150.2z"/><path fill="#FFEDE1" d="M150.2 284.4h8.2V445h-8.2zm93.9 0h8.2V445h-8.2z"/><path fill="#FFEDE1" d="M154.3 361.2h93.9v8.3h-93.9z"/><path fill="#FFEDE1" d="M183 286.4h4.6v160.5H183zm29.7.5h4.6v160.5h-4.6z"/><path fill="#FFEDE1" d="M248.1568 322.5804v4.6h-93.9v-4.6zm.0784 78.4783v4.6h-93.9v-4.6zM150.2 279.4h102.1v8.3H150.2z"/><path fill="#004406" d="M104.6 277.6H143v186.1h-38.4z"/><path d="M105.4 279.3h36.5v2.2h-36.5zm-.3 3.7h36.5v2.2h-36.5zm.3 3.6h36.5v2.2h-36.5zm-.1 3.4h36.5v2.2h-36.5zm.1 4h36.5v2.2h-36.5zm-.3 3.2h36.5v2.2h-36.5zm.2 4.1h36.5v2.2h-36.5zm0 3.5h36.5v2.2h-36.5zm.1 3.2h36.5v2.2h-36.5zm0 3.5h36.5v2.2h-36.5zm0 3.4h36.5v2.2h-36.5zm0 3.1h36.5v2.2h-36.5zm-.1 3.6h36.5v2.2h-36.5zm-.2 3.7h36.5v2.2h-36.5zm.2 3.5h36.5v2.2h-36.5zm.4 3.1h36.5v2.2h-36.5zm.2 3.2h36.5v2.2h-36.5zm0 2.9h36.5v2.2h-36.5zm-.3 3h36.5v2.2h-36.5zm-.5 3h36.5v2.2h-36.5zm0 3h36.5v2.2h-36.5zm.6 2.9h36.5v2.2h-36.5zm-.3 3.1h36.5v2.2h-36.5zm-.3 2.9h36.5v2.2h-36.5zm-.1 3.4h36.5v2.2H105zm.6 3.5h36.5v2.2h-36.5zm0 13.6h36.5v2.2h-36.5zm-.3 3.6h36.5v2.2h-36.5zm.3 3.7h36.5v2.2h-36.5zm-.2 3.4h36.5v2.2h-36.5zm.2 3.9h36.5v2.2h-36.5zm-.3 3.2h36.5v2.2h-36.5zm.1 4.1h36.5v2.2h-36.5zm0 3.6h36.5v2.2h-36.5zm.2 3.2h36.5v2.2h-36.5zm0 3.5h36.5v2.2h-36.5zm0 3.4h36.5v2.2h-36.5zm0 3h36.5v2.2h-36.5zm-.2 3.7h36.5v2.2h-36.5zm-.1 3.6h36.5v2.2h-36.5zm.1 3.6h36.5v2.2h-36.5zm.5 3h36.5v2.2h-36.5zm.1 3.2h36.5v2.2H106zm0 2.9h36.5v2.2H106zm-.3 3.1h36.5v2.2h-36.5zm-.4 2.9h36.5v2.2h-36.5zm0 3.1h36.5v2.2h-36.5zm.6 2.9h36.5v2.2h-36.5zm-.3 3h36.5v2.2h-36.5zm-.3 2.9h36.5v2.2h-36.5zm-.2 3.4h36.5v2.2h-36.5zm.6 3.5h36.5v2.2h-36.5z" fill="#002102"/><g fill="#00590A"><path d="M102 274h4.7v193.4H102zm38.9 0h4.7v193.4h-4.7z"/><path d="M102 462.5h43.6v4.8H102zm0-97.8h43.6v11.9H102zm0-90.7h43.6v4.7H102z"/></g><path fill="#004406" d="M106.7 366h34.2v9.3h-34.2zm153.2-88.4h38.4v186.1h-38.4z"/><path d="M260.7 279.3h36.5v2.2h-36.5zm-.3 3.7h36.5v2.2h-36.5zm.3 3.6h36.5v2.2h-36.5zm-.1 3.4h36.5v2.2h-36.5zm.1 4h36.5v2.2h-36.5zm-.3 3.2h36.5v2.2h-36.5zm.2 4.1h36.5v2.2h-36.5zm0 3.5h36.5v2.2h-36.5zm.1 3.2h36.5v2.2h-36.5zm0 3.5h36.5v2.2h-36.5zm0 3.4h36.5v2.2h-36.5zm0 3.1h36.5v2.2h-36.5zm-.1 3.6h36.5v2.2h-36.5zm-.2 3.7h36.5v2.2h-36.5zm.2 3.5h36.5v2.2h-36.5zm.5 3.1h36.5v2.2h-36.5zm.1 3.2h36.5v2.2h-36.5zm0 2.9h36.5v2.2h-36.5zm-.3 3h36.5v2.2h-36.5zm-.5 3h36.5v2.2h-36.5zm0 3h36.5v2.2h-36.5zm.7 2.9h36.5v2.2h-36.5zm-.4 3.1h36.5v2.2h-36.5zm-.3 2.9h36.5v2.2h-36.5zm-.1 3.4h36.5v2.2h-36.5zm.6 3.5h36.5v2.2h-36.5zm0 13.6h36.5v2.2h-36.5zm-.3 3.6h36.5v2.2h-36.5zm.3 3.7h36.5v2.2h-36.5zm-.2 3.4h36.5v2.2h-36.5zm.2 3.9h36.5v2.2h-36.5zm-.3 3.2h36.5v2.2h-36.5zm.1 4.1h36.5v2.2h-36.5zm0 3.6h36.5v2.2h-36.5zm.2 3.2h36.5v2.2h-36.5zm0 3.5h36.5v2.2h-36.5zm0 3.4h36.5v2.2h-36.5zm0 3h36.5v2.2h-36.5zm-.2 3.7h36.5v2.2h-36.5zm-.1 3.6h36.5v2.2h-36.5zm.1 3.6h36.5v2.2h-36.5zm.5 3h36.5v2.2h-36.5zm.2 3.2h36.5v2.2h-36.5zm0 2.9h36.5v2.2h-36.5zm-.3 3.1h36.5v2.2h-36.5zm-.5 2.9h36.5v2.2h-36.5zm0 3.1h36.5v2.2h-36.5zm.6 2.9h36.5v2.2h-36.5zm-.3 3h36.5v2.2h-36.5zm-.3 2.9h36.5v2.2h-36.5zm-.2 3.4h36.5v2.2h-36.5zm.7 3.5h36.5v2.2h-36.5z" fill="#002102"/><g fill="#00590A"><path d="M257.3 274h4.7v193.4h-4.7zm38.9 0h4.7v193.4h-4.7z"/><path d="M257.3 462.5h43.6v4.8h-43.6zm0-97.8h43.6v11.9h-43.6zm0-90.7h43.6v4.7h-43.6z"/></g><path fill="#004406" d="M262 366h34.2v9.3H262z"/><path d="M90.5 253.9h12m-.5-.5v-17m.5 12.5h12m-.5-.5v-17m-32.5 14.5h12m-.5-.5v-17m-14.5 35.5h12m-.5-.5v-17m6.5-9.5h12m-.5-.5v-17m360.5 265.5h-12m.5-.5v-17m-.5 12.5h-12m.5-.5v-17m32.5 14.5h-12m.5-.5v-17m14.5 35.5h-12m.5-.5v-17m-6.5-9.5h-12m.5-.5v-17M79.5 531.9h12m-.5-.5v-17m.5 12.5h12m-.5-.5v-17m-32.5 14.5h12m-.5-.5v-17m-14.5 35.5h12m-.5-.5v-17m6.5-9.5h12m-.5-.5v-17m215.5 31.5h-12m.5-.5v-17m-.5 12.5h-12m.5-.5v-17m32.5 14.5h-12m.5-.5v-17m14.5 35.5h-12m.5-.5v-17m-6.5-9.5h-12m.5-.5v-17m720.5 27.5h12m-.5-.5v-17m.5 12.5h12m-.5-.5v-17m-32.5 14.5h12m-.5-.5v-17m-14.5 35.5h12m-.5-.5v-17m6.5-9.5h12m-.5-.5v-17m-32.5-231.5h-12m.5-.5v-17m-.5 12.5h-12m.5-.5v-17m32.5 14.5h-12m.5-.5v-17m14.5 35.5h-12m.5-.5v-17m-6.5-9.5h-12m.5-.5v-17M791.5 523.9h12m-.5-.5v-17m.5 12.5h12m-.5-.5v-17m-32.5 14.5h12m-.5-.5v-17m-14.5 35.5h12m-.5-.5v-17m6.5-9.5h12m-.5-.5v-17" fill="#C6AA93" stroke="#5E5147" stroke-miterlimit="10"/><path fill="#EADAD0" d="M366.5 254.4h21.3v371h-21.3z"/><g fill="#A39993"><path d="M387.5 255.4h10.3v354.7h-10.3z"/><path d="M387.5 595.1l10.3 15-10.3 15"/></g><g fill="#0C0B0A"><path d="M418.8 11.4h300.4V201H418.8z"/><path d="M340.3 201.4l78.4-189.6 78.4 189.6m143.5 0L719 11.8l78.5 189.6"/></g><path fill="#EADAD0" d="M766.7787 626.4898h-21.3v-371h21.3z"/><g fill="#A39993"><path d="M745.7787 611.1565h-10.3v-354.7h10.3z"/><path d="M745.5 596.1l-10.4 15 10.4 15"/></g><g fill="#352F2B"><path d="M418.8.4h300.4v255.5H418.8z"/><path d="M340.3 256.4L418.7 1l78.4 255.4m143.5 0L719 1l78.5 255.4"/></g><path fill="#B4DFF9" d="M854.1 286.3H948V450h-93.9z"/><path fill="#FFEDE1" d="M850 442.3h102.1v15.5H850z"/><path fill="#FFEDE1" d="M850 284.3h8.2v160.6H850zm93.9 0h8.2v160.6h-8.2z"/><path fill="#FFEDE1" d="M854.1 361.2H948v8.3h-93.9z"/><path fill="#FFEDE1" d="M882.8 286.3h4.6v160.5h-4.6zm29.7.6h4.6v160.5h-4.6z"/><path fill="#FFEDE1" d="M947.9689 322.4929v4.6h-93.9v-4.6zm-.0217 78.4783v4.6h-93.9v-4.6zM850 279.3h102.1v8.3H850z"/><path fill="#004406" d="M804.4 277.6h38.4v186.1h-38.4z"/><path d="M805.2 279.2h36.5v2.2h-36.5zm-.3 3.7h36.5v2.2h-36.5zm.3 3.7h36.5v2.2h-36.5zm-.1 3.3h36.5v2.2h-36.5zm.1 4h36.5v2.2h-36.5zm-.3 3.2h36.5v2.2h-36.5zm.2 4.1h36.5v2.2h-36.5zm0 3.5h36.5v2.2h-36.5zm.1 3.2h36.5v2.2h-36.5zm0 3.6h36.5v2.2h-36.5zm0 3.3h36.5v2.2h-36.5zm0 3.1h36.5v2.2h-36.5zm-.1 3.7h36.5v2.2h-36.5zm-.2 3.6h36.5v2.2h-36.5zm.2 3.5h36.5v2.2h-36.5zm.4 3.1H842v2.2h-36.5zm.2 3.2h36.5v2.2h-36.5zm0 2.9h36.5v2.2h-36.5zm-.3 3.1h36.5v2.2h-36.5zm-.5 2.9h36.5v2.2h-36.5zm0 3h36.5v2.2h-36.5zm.6 2.9H842v2.2h-36.5zm-.3 3.1h36.5v2.2h-36.5zm-.3 2.9h36.5v2.2h-36.5zm-.1 3.4h36.5v2.2h-36.5zm.6 3.5h36.5v2.2h-36.5zm0 13.6h36.5v2.2h-36.5zm-.3 3.6h36.5v2.2h-36.5zm.3 3.7h36.5v2.2h-36.5zm-.2 3.4h36.5v2.2h-36.5zm.2 3.9h36.5v2.2h-36.5zm-.3 3.3h36.5v2.2h-36.5zm.1 4.1h36.5v2.2h-36.5zm0 3.5h36.5v2.2h-36.5zm.2 3.2h36.5v2.2h-36.5zm0 3.5h36.5v2.2h-36.5zm0 3.4h36.5v2.2h-36.5zm0 3h36.5v2.2h-36.5zm-.2 3.7h36.5v2.2h-36.5zm-.1 3.7h36.5v2.2h-36.5zm.1 3.5h36.5v2.2h-36.5zm.5 3h36.5v2.2h-36.5zm.1 3.2h36.5v2.2h-36.5zm0 2.9h36.5v2.2h-36.5zm-.3 3.1H842v2.2h-36.5zm-.4 2.9h36.5v2.2h-36.5zm0 3.1h36.5v2.2h-36.5zm.6 2.9h36.5v2.2h-36.5zm-.3 3h36.5v2.2h-36.5zm-.3 2.9h36.5v2.2h-36.5zm-.2 3.4h36.5v2.2h-36.5zm.6 3.6H842v2.2h-36.5z" fill="#002102"/><g fill="#00590A"><path d="M801.8 273.9h4.7v193.4h-4.7zm38.9 0h4.7v193.4h-4.7z"/><path d="M801.8 462.5h43.6v4.8h-43.6zm0-97.9h43.6v11.9h-43.6zm0-90.7h43.6v4.7h-43.6z"/></g><path fill="#004406" d="M806.5 365.9h34.2v9.3h-34.2zm153.2-88.3h38.4v186.1h-38.4z"/><path d="M960.5 279.2H997v2.2h-36.5zm-.3 3.7h36.5v2.2h-36.5zm.3 3.7H997v2.2h-36.5zm-.1 3.3h36.5v2.2h-36.5zm.1 4H997v2.2h-36.5zm-.3 3.2h36.5v2.2h-36.5zm.2 4.1h36.5v2.2h-36.5zm0 3.5h36.5v2.2h-36.5zm.1 3.2H997v2.2h-36.5zm0 3.6H997v2.2h-36.5zm0 3.3H997v2.2h-36.5zm0 3.1H997v2.2h-36.5zm-.1 3.7h36.5v2.2h-36.5zm-.2 3.6h36.5v2.2h-36.5zm.2 3.5h36.5v2.2h-36.5zm.5 3.1h36.5v2.2h-36.5zm.1 3.2h36.5v2.2H961zm0 2.9h36.5v2.2H961zm-.3 3.1h36.5v2.2h-36.5zm-.5 2.9h36.5v2.2h-36.5zm0 3h36.5v2.2h-36.5zm.7 2.9h36.5v2.2h-36.5zm-.4 3.1H997v2.2h-36.5zm-.3 2.9h36.5v2.2h-36.5zm-.1 3.4h36.5v2.2h-36.5zm.6 3.5h36.5v2.2h-36.5zm0 13.6h36.5v2.2h-36.5zm-.3 3.6h36.5v2.2h-36.5zm.3 3.7h36.5v2.2h-36.5zm-.2 3.4H997v2.2h-36.5zm.2 3.9h36.5v2.2h-36.5zm-.3 3.3h36.5v2.2h-36.5zm.1 4.1H997v2.2h-36.5zm0 3.5H997v2.2h-36.5zm.2 3.2h36.5v2.2h-36.5zm0 3.5h36.5v2.2h-36.5zm0 3.4h36.5v2.2h-36.5zm0 3h36.5v2.2h-36.5zm-.2 3.7H997v2.2h-36.5zm-.1 3.7h36.5v2.2h-36.5zm.1 3.5H997v2.2h-36.5zm.5 3h36.5v2.2H961zm.2 3.2h36.5v2.2h-36.5zm0 2.9h36.5v2.2h-36.5zm-.3 3.1h36.5v2.2h-36.5zm-.5 2.9h36.5v2.2h-36.5zm0 3.1h36.5v2.2h-36.5zm.6 2.9h36.5v2.2H961zm-.3 3h36.5v2.2h-36.5zm-.3 2.9h36.5v2.2h-36.5zm-.2 3.4h36.5v2.2h-36.5zm.7 3.6h36.5v2.2h-36.5z" fill="#002102"/><g fill="#00590A"><path d="M957.1 273.9h4.7v193.4h-4.7zm38.9 0h4.7v193.4H996z"/><path d="M957.1 462.5h43.6v4.8h-43.6zm0-97.9h43.6v11.9h-43.6zm0-90.7h43.6v4.7h-43.6z"/></g><path fill="#004406" d="M961.8 365.9H996v9.3h-34.2z"/><path fill="#513521" d="M.5 651.4h330v17.3H.5z"/><path fill="#8C3131" d="M346.5 625.1h440.3v24.7H346.5z"/><path fill="#602323" d="M346.5 625.1h440.3v1H346.5z"/></svg>