<?xml version="1.0" encoding="utf-8"?>
<!-- Generator: Adobe Illustrator 19.2.0, SVG Export Plug-In . SVG Version: 6.00 Build 0)  -->
<svg version="1.1" id="Layer_1" xmlns="http://www.w3.org/2000/svg" xmlns:xlink="http://www.w3.org/1999/xlink" x="0px" y="0px"
	 viewBox="0 0 455 349.2" enable-background="new 0 0 455 349.2" xml:space="preserve">
<polygon fill="#515151" points="328,338 328,338 339.8,348.4 340,336.6 340,44.4 339.8,31.6 328.4,41 328,41 "/>
<rect x="339.5" y="219.3" transform="matrix(-1 -4.477542e-011 4.477542e-011 -1 704.9514 568.5198)" fill="#828282" width="26" height="129.9"/>
<polygon fill="#515151" points="119,338 119.5,338 107.4,348.4 107,336.6 107,44.4 107.4,31.6 119.1,41 119,41 "/>
<polygon fill="#515151" points="15,0 15,0 0.1,11.8 17.2,12 436.8,12 454.9,11.8 441,0 441,0 "/>
<rect x="81" y="219.3" fill="#828282" width="26" height="129.9"/>
<g>
	<rect x="7" y="17.6" fill="#005C84" width="441" height="208"/>
	<path fill="#828282" d="M441,24.6v194H14v-194H441 M455,10.6h-14H14H0v14v194v14h14h427h14v-14v-194V10.6L455,10.6z"/>
</g>
<g>
	<path fill="#00EAEA" d="M133.8,116.6V111l4.5-0.5c1-0.1,1.2-0.4,1.2-1.4V93.9h-19.7V109c0,1.2,0.1,1.3,1.2,1.4l4.8,0.6v5.6h-22.8
		V111l4.5-0.5c1-0.1,1.2-0.4,1.2-1.4V72.2c0-1.1-0.1-1.4-1.2-1.4l-4.5-0.5v-5.8h22.8v5.8l-4.8,0.6c-1.1,0.1-1.2,0.3-1.2,1.4v13.6
		h19.7V72.2c0-1.1-0.1-1.4-1.2-1.4l-4.5-0.5v-5.8h22.8v5.8l-4.8,0.6c-1.1,0.1-1.2,0.3-1.2,1.4V109c0,1.2,0.1,1.3,1.2,1.4l4.8,0.6
		v5.6H133.8z"/>
	<path fill="#00EAEA" d="M190.8,116.6V111l5.9-0.6l-2.6-7.5h-17.9l-2.5,7.5l5.7,0.6v5.6h-20.1V111l3.2-0.8c0.9-0.2,1.5-0.5,1.8-1.4
		l15.8-44.4h12.7l15.7,44.5c0.3,0.9,0.9,1,1.7,1.2l3.3,0.8v5.6H190.8z M185.5,75.5h-0.4l-6.6,19.6h13.5L185.5,75.5z"/>
	<path fill="#00EAEA" d="M216.5,116.6v-5.7l4.5-0.5c1-0.1,1.2-0.4,1.2-1.4V72.2c0-1.1-0.1-1.4-1.2-1.4l-4.5-0.5v-5.8h24.4
		c13.3,0,17.4,7.1,17.4,15.3c0,12.5-7.6,17.6-19.7,17.6h-5.3v11.5c0,1.2,0.1,1.3,1.2,1.4l10.3,0.6v5.7H216.5z M236.9,89.7
		c4.8,0,10-1.1,10-9.2c0-6.9-4.2-8.1-9.4-8.1h-4.2v17.4H236.9z"/>
	<path fill="#00EAEA" d="M263,116.6v-5.7l4.5-0.5c1-0.1,1.2-0.4,1.2-1.4V72.2c0-1.1-0.1-1.4-1.2-1.4l-4.5-0.5v-5.8h24.4
		c13.3,0,17.4,7.1,17.4,15.3c0,12.5-7.6,17.6-19.7,17.6h-5.3v11.5c0,1.2,0.1,1.3,1.2,1.4l10.3,0.6v5.7H263z M283.4,89.7
		c4.8,0,10-1.1,10-9.2c0-6.9-4.2-8.1-9.4-8.1h-4.2v17.4H283.4z"/>
	<path fill="#00EAEA" d="M317.3,116.6v-5.7l7.2-0.5c1-0.1,1.2-0.4,1.2-1.4V97.2l-14.3-25.1c-0.4-0.7-0.9-0.9-1.7-1.2l-3.2-0.8
		l0.7-5.6h21.6v5.6l-5.6,0.6l8.7,17h0.6l8.7-17l-5.5-0.6l0.7-5.6h18.4v5.6l-3,0.8c-0.8,0.2-1.4,0.6-1.8,1.4l-13,24.8v12
		c0,1,0.1,1.3,1.2,1.4l7.6,0.6v5.7H317.3z"/>
	<path fill="#00EAEA" d="M63.2,176.6V171l4.5-0.5c1-0.1,1.2-0.4,1.2-1.4v-15.2H49.2V169c0,1.2,0.1,1.3,1.2,1.4l4.8,0.6v5.6H32.3V171
		l4.5-0.5c1-0.1,1.2-0.4,1.2-1.4v-36.9c0-1.1-0.1-1.4-1.2-1.4l-4.5-0.5v-5.8h22.8v5.8l-4.8,0.6c-1.1,0.1-1.2,0.3-1.2,1.4v13.6h19.7
		v-13.6c0-1.1-0.1-1.4-1.2-1.4l-4.5-0.5v-5.8H86v5.8l-4.8,0.6c-1.1,0.1-1.2,0.3-1.2,1.4V169c0,1.2,0.1,1.3,1.2,1.4L86,171v5.6H63.2z
		"/>
	<path fill="#00EAEA" d="M90.7,150.7c0-15.4,8.6-27.1,25.8-27.1c17.1,0,24.4,11.7,24.4,26.2c0,16.9-8.3,27.7-25.4,27.7
		C98,177.5,90.7,166.3,90.7,150.7z M129.4,150.4c0-12.5-5-17.8-13.1-17.8c-8.3,0-14.1,5.5-14.1,17.9c0,13,5.4,18.1,13.7,18.1
		C124,168.6,129.4,163.7,129.4,150.4z"/>
	<path fill="#00EAEA" d="M145.9,176.6v-5.7l4.5-0.5c1-0.1,1.2-0.4,1.2-1.4v-36.9c0-1.1-0.1-1.4-1.2-1.4l-4.5-0.5v-5.7h24v5.7l-6,0.6
		c-1.1,0.1-1.2,0.4-1.2,1.4v36.8h12.8c0.8,0,1-0.1,1.2-0.8l1.2-7.2h7.9v15.7H145.9z"/>
	<path fill="#00EAEA" d="M190.6,176.6V171l5.3-0.5c1-0.1,1.2-0.4,1.2-1.4v-36.9c0-1.1-0.1-1.4-1.2-1.4l-5.3-0.5v-5.8h24.2v5.8
		l-5.5,0.6c-1.1,0.1-1.2,0.3-1.2,1.4V169c0,1.2,0.1,1.3,1.2,1.4l5.5,0.6v5.6H190.6z"/>
	<path fill="#00EAEA" d="M219.9,176.6v-5.8l4.5-0.5c1-0.1,1.2-0.4,1.2-1.4v-36.8c0-1.1-0.1-1.3-1.2-1.4l-4.5-0.5v-5.7h23.3
		c18.1,0,25.9,9.7,25.9,25.3c0,16-8.4,26.9-27.1,26.9H219.9z M240.8,168.8c12.7,0,16.9-7.5,16.9-18.4c0-13.2-5-18.1-16.5-18.1h-4.5
		v36.6H240.8z"/>
	<path fill="#00EAEA" d="M299.7,176.6V171l5.9-0.6l-2.6-7.5h-17.9l-2.5,7.5l5.7,0.6v5.6h-20.1V171l3.2-0.8c0.9-0.2,1.5-0.5,1.8-1.4
		l15.8-44.4h12.7l15.7,44.5c0.3,0.9,0.9,1,1.7,1.2l3.3,0.8v5.6H299.7z M294.5,135.5H294l-6.6,19.6h13.5L294.5,135.5z"/>
	<path fill="#00EAEA" d="M327.4,176.6v-5.7l7.2-0.5c1-0.1,1.2-0.4,1.2-1.4v-11.8l-14.3-25.1c-0.4-0.7-0.9-0.9-1.7-1.2l-3.2-0.8
		l0.7-5.6h21.6v5.6l-5.6,0.6l8.7,17h0.6l8.7-17l-5.5-0.6l0.7-5.6h18.4v5.6l-3,0.8c-0.8,0.2-1.4,0.6-1.8,1.4l-13,24.8v12
		c0,1,0.1,1.3,1.2,1.4l7.6,0.6v5.7H327.4z"/>
	<path fill="#00EAEA" d="M392.9,139.7l-0.9-5.8c-0.1-0.9-0.4-1.2-0.9-1.4c-1.2-0.4-2.9-0.8-5.3-0.8c-5.4,0-8.1,2.4-8.1,6.1
		c0,4.8,4.9,6,10.4,7.7c6.8,2.1,14.5,4.7,14.5,15.5c0,11.8-9.2,16.4-20.2,16.4c-6.5,0-13.8-1.7-16.5-3v-14h8.1l1.4,6.8
		c0.1,0.9,0.3,1.1,1.2,1.3c0.9,0.2,3.3,0.8,6,0.8c5.8,0,9.1-2.3,9.1-6.7c0-4.6-4.1-6-8.9-7.4c-7.1-2-15.9-4-15.9-15.6
		c0-11.1,8.4-16.2,19.3-16.2c6.2,0,11.5,1.5,14.8,2.9v14L392.9,139.7z"/>
	<path fill="#00EAEA" d="M415.4,177.5c-4.2,0-6.2-1.9-6.2-5.6c0-3.7,2-5.6,6.2-5.6c4.1,0,6.2,1.9,6.2,5.6
		C421.6,175.5,419.6,177.5,415.4,177.5z M410.9,162.5l-1.3-25.3v-12.7h11.6v12.7l-1.2,25.3H410.9z"/>
</g>
</svg>
