<?xml version="1.0" encoding="utf-8"?>
<!-- Generator: Adobe Illustrator 19.2.0, SVG Export Plug-In . SVG Version: 6.00 Build 0)  -->
<svg version="1.1" id="Layer_1" xmlns="http://www.w3.org/2000/svg" xmlns:xlink="http://www.w3.org/1999/xlink" x="0px" y="0px"
	 viewBox="0 0 466.7 525.9" enable-background="new 0 0 466.7 525.9" xml:space="preserve">
<rect x="196" y="261" fill="#828282" width="34.8" height="248.1"/>
<polygon fill="#515151" points="242.7,247 242.6,247 230.8,237.6 230.7,248.5 230.7,514.3 230.8,525.8 242.6,517 242.7,517 "/>
<g>
	<g>
		<polygon fill="#005C84" points="7,245.5 7,38.5 448,7.5 448,276.5 		"/>
		<path fill="#828282" d="M441,15v254L14,239V45L441,15 M455,0l-15,1.1L13,31L0,32V45v194v13.1l13,0.9l427,30l15,1.1v-15V15V0L455,0
			z"/>
	</g>
	<g>
		<path fill="#00EAEA" d="M112,136.7v-6l4-0.6c0.9-0.2,1-0.4,1-1.6v-16.3l-17.2,0.3v16.1c0,1.2,0.1,1.4,1,1.5l4.2,0.6v6l-19.5,0.1
			v-5.9l3.8-0.6c0.9-0.2,1-0.4,1-1.5V89.9c0-1.1-0.1-1.4-1-1.5L85.4,88v-6.1l19.5-0.8v6.1l-4.2,0.8c-0.9,0.2-1,0.3-1,1.5V104
			l17.2-0.4V88.9c0-1.2-0.1-1.5-1-1.5l-4-0.4v-6.2l20.2-0.8v6.3l-4.3,0.8c-1,0.2-1,0.3-1,1.5v39.8c0,1.2,0.1,1.4,1,1.5l4.3,0.6v6.1
			L112,136.7z"/>
		<path fill="#00EAEA" d="M163.7,136.5v-6.2l5.6-0.8l-2.4-8.3l-16.6,0.2l-2.3,8.2l5.2,0.7v6.2l-18.4,0.1v-6.1l2.9-0.9
			c0.8-0.2,1.4-0.6,1.6-1.5l14.5-49l11.9-0.5l14.9,49.2c0.3,1,0.8,1.1,1.7,1.4l3.2,0.9v6.3L163.7,136.5z M158.7,91.1l-0.4,0
			l-6.1,21.8l12.5-0.2L158.7,91.1z"/>
		<path fill="#00EAEA" d="M188.2,136.4V130l4.4-0.6c1-0.2,1.1-0.4,1.1-1.6V86.2c0-1.2-0.1-1.5-1.1-1.6l-4.4-0.4v-6.5l24-1
			c13.4-0.6,17.5,7.4,17.5,17c0,14.5-7.7,20.4-19.9,20.7l-5.2,0.1v13.1c0,1.3,0.1,1.5,1.1,1.6l10.3,0.6v6.5L188.2,136.4z
			 M208.2,105.6c4.7-0.1,10-1.5,10-10.8c0-7.9-4.3-9.2-9.4-9l-4.2,0.2v19.7L208.2,105.6z"/>
		<path fill="#00EAEA" d="M234.6,136.2v-6.6l4.7-0.6c1-0.2,1.2-0.4,1.2-1.7V84.5c0-1.3-0.1-1.6-1.2-1.6l-4.7-0.4v-6.7l25.5-1.1
			c14.2-0.6,18.6,7.6,18.6,17.5c0,14.9-8.2,21.1-21.1,21.3l-5.5,0.1v13.5c0,1.4,0.1,1.5,1.2,1.7l10.9,0.6v6.7L234.6,136.2z
			 M255.8,104.5c5-0.1,10.6-1.5,10.6-11.1c0-8.2-4.5-9.5-9.9-9.3l-4.5,0.2v20.3L255.8,104.5z"/>
		<path fill="#00EAEA" d="M292.3,136v-6.8l8-0.7c1.1-0.1,1.3-0.4,1.3-1.8v-14.3l-15.8-29.7c-0.5-0.8-0.9-1.1-1.9-1.4l-3.5-0.8
			l0.8-6.7l23.8-1v6.8l-6.3,1l9.7,20.3l0.6,0l9.9-21l-6.3-0.6l0.8-6.9l21-0.9v6.9l-3.5,1.1c-0.9,0.3-1.7,0.8-2.1,1.8l-14.9,30.7
			v14.6c0,1.2,0.1,1.6,1.3,1.7l8.7,0.6v7L292.3,136z"/>
		<path fill="#00EAEA" d="M52.6,198.6v-5.8l3.7-0.4c0.8-0.1,0.9-0.3,0.9-1.5v-15.7l-15.8-0.4v15.4c0,1.2,0.1,1.3,0.9,1.5l3.8,0.7
			v5.7l-18-0.7v-5.7l3.5-0.4c0.8-0.1,0.9-0.3,0.9-1.4v-37.4c0-1.1-0.1-1.4-0.9-1.5l-3.5-0.5v-5.8l18,0v5.9l-3.8,0.6
			c-0.9,0.1-0.9,0.3-0.9,1.4v13.9l15.8,0.3v-14c0-1.1-0.1-1.4-0.9-1.5l-3.7-0.5V145l18.6,0v6l-4,0.6c-0.9,0.1-0.9,0.3-0.9,1.4v38.2
			c0,1.2,0.1,1.3,0.9,1.5l4,0.7v5.8L52.6,198.6z"/>
		<path fill="#00EAEA" d="M75.2,172.4c0-16.1,7.2-28.3,21.8-28.3c14.8,0,21.3,12.7,21.3,28.2c0,18.2-7.3,29.5-22.1,28.9
			C81.3,200.6,75.2,188.7,75.2,172.4z M108.2,172.8c0-13.3-4.3-19-11.3-19.1c-7.1-0.1-12,5.7-12,18.7c0,13.6,4.6,19.2,11.6,19.5
			C103.4,192.1,108.2,186.9,108.2,172.8z"/>
		<path fill="#00EAEA" d="M122.6,201.3v-6.1l4-0.4c0.9-0.1,1-0.4,1-1.5v-39.9c0-1.2-0.1-1.5-1-1.6l-4-0.6v-6.1l21.6,0v6.2l-5.4,0.6
			c-1,0.1-1,0.4-1,1.5v40.1l11.7,0.4c0.7,0,0.9,0,1.1-0.8l1.1-7.9l7.4,0.2v17.3L122.6,201.3z"/>
		<path fill="#00EAEA" d="M163.5,203v-6.2l4.9-0.4c1,0,1.1-0.4,1.1-1.6v-41c0-1.2-0.1-1.5-1.1-1.6l-4.9-0.6v-6.4l23,0v6.5l-5.3,0.6
			c-1,0.2-1.1,0.3-1.1,1.5v41.2c0,1.3,0.1,1.5,1.1,1.7l5.3,0.8v6.3L163.5,203z"/>
		<path fill="#00EAEA" d="M191.5,204.1v-6.5l4.4-0.4c1,0,1.1-0.4,1.1-1.6v-41.7c0-1.2-0.1-1.5-1.1-1.6l-4.4-0.6v-6.4l23,0
			c18.3,0,26.3,11.4,26.3,29.5c0,18.6-8.7,30.9-27.6,30.2L191.5,204.1z M212.1,196c12.8,0.4,17.1-8.1,17.1-20.7
			c0-15.3-5.1-21-16.7-21.1l-4.5,0v41.7L212.1,196z"/>
		<path fill="#00EAEA" d="M273.2,207.3v-6.7l6.4-0.5l-2.8-9l-19.1-0.6l-2.7,8.7l6,1v6.6L240,206v-6.5l3.3-0.8
			c0.9-0.2,1.6-0.5,1.9-1.5l16.6-51.7l13.7,0l17.1,53.5c0.3,1,1,1.2,1.9,1.5l3.7,1.1v6.8L273.2,207.3z M267.6,158.4l-0.5,0l-7.1,23
			l14.4,0.3L267.6,158.4z"/>
		<path fill="#00EAEA" d="M303.5,208.5v-6.9l8.1-0.3c1.1,0,1.3-0.4,1.3-1.7v-14.4l-16-30.6c-0.5-0.9-1-1.1-1.9-1.5l-3.6-1l0.8-6.7
			l24.2,0.1v6.8l-6.4,0.7l9.9,20.8l0.7,0l10-20.7l-6.4-0.8l0.8-6.9l21.3,0v7l-3.5,1c-0.9,0.3-1.7,0.7-2.1,1.7l-15.1,30.2v14.6
			c0,1.2,0.1,1.6,1.3,1.7l8.8,1v7L303.5,208.5z"/>
		<path fill="#00EAEA" d="M380.1,165l-1.1-7.4c-0.2-1.1-0.4-1.5-1.1-1.7c-1.4-0.5-3.5-1-6.4-1c-6.5,0-9.7,3-9.7,7.6
			c0,5.9,5.9,7.7,12.5,9.9c8.3,2.8,17.8,6.3,17.8,20c0,15-11.4,20.5-24.7,19.9c-7.8-0.3-16.4-2.7-19.6-4.5v-17.4l9.6,0.3l1.7,8.6
			c0.2,1.1,0.3,1.4,1.5,1.7c1,0.3,4,1.1,7.3,1.2c7.1,0.2,11-2.5,11-8.1c0-5.8-5-7.8-10.8-9.6c-8.6-2.7-19-5.4-19-19.8
			c0-13.8,9.9-20.1,23.1-20.1c7.5,0,14.1,1.9,18.1,3.7V166L380.1,165z"/>
		<path fill="#00EAEA" d="M408.1,213.8c-5.3-0.2-7.8-2.7-7.8-7.5c0-4.7,2.5-7.1,7.8-6.9c5.2,0.2,7.8,2.8,7.8,7.5
			C416,211.6,413.4,214,408.1,213.8z M402.4,194.4l-1.6-32.4v-16.3l14.6,0v16.5l-1.6,32.6L402.4,194.4z"/>
	</g>
</g>
<polygon fill="#515151" points="466.7,10 466.6,10 454.8,0.7 454.7,11.3 454.7,272.5 454.8,283.7 466.6,275 466.7,275 "/>
<g>
	<polygon fill="#828282" points="230.7,525.9 196,522 196,497.3 230.7,493.5 	"/>
</g>
</svg>
