<svg xmlns="http://www.w3.org/2000/svg" viewBox="0 0 791.4 480.4">
  <path fill="#FFC639" d="M159.2 31.4l3-2.8-.3 4 4 .6-3.3 2.3 2 3.5-3.9-1.2-1.5 3.8-1.4-3.8-3.9 1.2 2-3.5-3.3-2.3 4-.6-.3-4m-80.4 137l2.3-2.2-.2 3.2 3.2.5-2.7 1.8 1.6 2.8-3-1-1.2 3-1.2-3-3.1 1 1.6-2.8-2.6-1.8 3.2-.5-.3-3.2M46.9 45l3-2.7-.3 4 4 .6-3.4 2.3 2 3.5-3.8-1.2-1.5 3.8-1.5-3.8-3.8 1.2 2-3.5-3.3-2.3 4-.6-.3-4m430.2 132.5l2.9-2.7-.2 4 3.9.6-3.3 2.3 2 3.5-3.8-1.2-1.5 3.7-1.5-3.7-3.8 1.2 2-3.5-3.4-2.3 4-.6-.3-4M394.8 111l1.8-1.7-.1 2.5 2.4.4-2 1.3 1.2 2.2-2.4-.7-.9 2.2-.9-2.2-2.3.7 1.2-2.2-2-1.3 2.4-.4-.2-2.5m340.2-17.9l3-2.8-.3 4 4 .7-3.4 2.2 2.1 3.5-3.9-1.2-1.5 3.8-1.5-3.8-3.8 1.2 2-3.5-3.3-2.2 4-.7-.3-4m-78.4 9.6l3-2.8-.3 4.1 3.9.6-3.3 2.2 2 3.5-3.8-1.2-1.5 3.8-1.5-3.8-3.8 1.2 2-3.5-3.3-2.2 3.9-.6-.3-4.1M467.2 52.8l3.7-3.4-.4 4.9 4.9.8-4.1 2.8 2.5 4.3-4.7-1.4-1.9 4.6-1.8-4.6-4.7 1.4 2.4-4.3-4.1-2.8 5-.8-.4-4.9M581 16.3l3.6-3.4-.3 5 4.9.7-4.1 2.8 2.5 4.3-4.8-1.4-1.8 4.6-1.8-4.6-4.8 1.4 2.5-4.3-4.1-2.8 4.9-.7-.4-5M682 174.4l2.7-.2-2.2 2 1.4 2-2.6-.2-1 2.7-1-2.3-2.6 1.3 1.3-2.6-2.3-1.1 2.7-.9-.3-2.7 2 1.5 2-2.3m-490.5 8.2l2.6-2.4-.2 3.5 3.5.6-2.9 2 1.8 3.1-3.5-1-1.3 3.3-1.3-3.3-3.4 1 1.7-3.1-2.9-2 3.5-.6-.2-3.5m582.4-12.7l1.2 3.9-3.5-2-2.2 3.4-.7-4-4 .3 2.7-3-2.7-2.9 4 .2.6-3.9 2.3 3.3 3.4-2.1-1.1 3.9 3.8 1.4M241.6 67.6l1.5 4.7-4.3-2.4L236 74l-.8-4.9-5 .4 3.4-3.7-3.4-3.6 4.9.3.7-4.9 2.9 4.1 4.3-2.5-1.4 4.7 4.6 1.8m-130.6 52.9l1.5 4.7-4.3-2.4-2.8 4.1-.8-4.9-5 .4 3.4-3.7-3.4-3.6 4.9.3.7-4.9 2.9 4.1 4.3-2.5-1.4 4.7 4.6 1.8m429.9 13.7l1.9-1.7-.2 2.6 2.6.4-2.2 1.4 1.3 2.3-2.4-.8-1 2.4-.9-2.4-2.5.8 1.3-2.3-2.2-1.4 2.6-.4-.2-2.6m-304.7 57.2l2.3-2.1-.2 3.1 3.1.4-2.6 1.8 1.6 2.7-3-.9-1.2 2.9-1.1-2.9-3 .9 1.6-2.7-2.6-1.8 3.1-.4-.2-3.1"/>
</svg>
